<?xml version="1.0"?>
<svg xmlns:rdf="http://www.w3.org/1999/02/22-rdf-syntax-ns#" xmlns="http://www.w3.org/2000/svg" xmlns:cc="http://creativecommons.org/ns#" xmlns:xlink="http://www.w3.org/1999/xlink" xmlns:dc="http://purl.org/dc/elements/1.1/" xmlns:svg="http://www.w3.org/2000/svg" id="svg2" viewBox="0 0 435.26 310.12" version="1.0">
  <defs id="defs4">
    <linearGradient id="linearGradient3155">
      <stop id="stop3157" stop-color="#c8c8c8" offset="0"/>
      <stop id="stop3159" offset="1"/>
    </linearGradient>
    <radialGradient id="radialGradient3163" xlink:href="#linearGradient3155" gradientUnits="userSpaceOnUse" cy="518.68" cx="483.2" gradientTransform="matrix(.19587 -.23612 .38672 .32081 124.77 441.49)" r="152.86"/>
    <radialGradient id="radialGradient3181" xlink:href="#linearGradient3155" gradientUnits="userSpaceOnUse" cy="321.69" cx="427.31" gradientTransform="matrix(-8.8123e-8 1.0507 1.2931 -.0000012699 -83.684 270.61)" r="152.86"/>
    <filter id="filter3417" y="-.19854" width="1.2963" x="-.14817" height="1.3971">
      <feGaussianBlur id="feGaussianBlur3419" stdDeviation="15.786717"/>
    </filter>
    <filter id="filter3461" y="-.64811" width="1.1953" x="-.09763" height="2.2962">
      <feGaussianBlur id="feGaussianBlur3463" stdDeviation="16.283838"/>
    </filter>
    <linearGradient id="linearGradient3471" y2="812.36" gradientUnits="userSpaceOnUse" y1="812.36" x2="-317.11" x1="74.148">
      <stop id="stop3467" offset="0"/>
      <stop id="stop3469" stop-opacity="0" offset="1"/>
    </linearGradient>
  </defs>
  <g id="layer1" transform="translate(-49.022 -435.22)">
    <path id="path3251" opacity=".7732" d="m111.43 799.51a200 30 0 1 1 -400 0 200 30 0 1 1 400 0z" transform="matrix(.84643 0 0 .76190 293.4 113.22)" filter="url(#filter3461)" stroke="#000" stroke-linecap="round" stroke-width=".3" fill="url(#linearGradient3471)"/>
    <path id="path2383" stroke-width="0" fill="url(#radialGradient3163)" d="m484.29 588.08a152.86 152.86 0 1 1 -305.72 0 152.86 152.86 0 1 1 305.72 0z"/>
    <path id="path3172" opacity=".7732" d="m331.03 727.07c-58.9 0-108.9-38.23-126.59-91.21 14.99-57.29 67.12-99.63 129.1-99.63 58.91 0 108.93 38.26 126.61 91.26-15.01 57.27-67.17 99.58-129.12 99.58z" filter="url(#filter3417)" stroke-width="0" fill="url(#radialGradient3181)"/>
    <path id="path3165" d="m-107.14 603.08a69.286 69.286 0 1 1 -138.57 0 69.286 69.286 0 1 1 138.57 0z" transform="matrix(.76289 0 0 .76289 466.02 128)" stroke="#000" stroke-linecap="round" stroke-width=".3" fill="#fff"/>
    <path id="text3167" d="m331.43 615.45c-2.32 0-4.59-0.35-6.82-1.05-2.2-0.7-4.17-1.72-5.91-3.05-1.74-1.35-3.14-2.98-4.2-4.89-1.04-1.94-1.56-4.14-1.56-6.6 0-1.86 0.26-3.53 0.8-5 0.55-1.48 1.27-2.78 2.14-3.92 0.89-1.14 1.91-2.13 3.04-2.97 1.14-0.87 2.28-1.62 3.45-2.25-0.71-0.39-1.48-0.88-2.33-1.49-0.84-0.6-1.63-1.35-2.35-2.24-0.73-0.9-1.34-1.96-1.85-3.19-0.48-1.24-0.73-2.68-0.73-4.32 0-2.22 0.48-4.19 1.42-5.91 0.96-1.71 2.23-3.15 3.8-4.31 1.58-1.16 3.35-2.04 5.33-2.65 2.01-0.6 4.05-0.91 6.13-0.91s4.07 0.31 5.98 0.91c1.94 0.61 3.64 1.49 5.11 2.65 1.48 1.16 2.65 2.6 3.52 4.31 0.9 1.72 1.34 3.69 1.34 5.91 0 1.64-0.24 3.07-0.72 4.28-0.46 1.21-1.05 2.26-1.78 3.15-0.7 0.87-1.46 1.62-2.28 2.25-0.82 0.61-1.59 1.12-2.29 1.56 0.99 0.51 2.03 1.18 3.12 2.03 1.09 0.82 2.08 1.82 2.97 3.01 0.92 1.16 1.67 2.5 2.25 4.02 0.61 1.53 0.91 3.22 0.91 5.08 0 2.46-0.53 4.66-1.6 6.6-1.04 1.91-2.43 3.54-4.17 4.89-1.71 1.33-3.68 2.35-5.91 3.05-2.22 0.7-4.49 1.05-6.81 1.05m9.42-40.97c0-1.33-0.25-2.49-0.76-3.48-0.48-1.01-1.16-1.85-2.03-2.5-0.84-0.68-1.83-1.17-2.97-1.49-1.14-0.34-2.36-0.5-3.66-0.5-1.31 0-2.53 0.16-3.66 0.5-1.14 0.32-2.14 0.81-3.01 1.49-0.85 0.65-1.52 1.49-2.03 2.5-0.49 0.99-0.73 2.15-0.73 3.48 0 1.43 0.24 2.68 0.73 3.77 0.51 1.07 1.18 1.97 2.03 2.72 0.87 0.73 1.87 1.28 3.01 1.67 1.13 0.36 2.35 0.54 3.66 0.54 1.3 0 2.52-0.18 3.66-0.54 1.14-0.39 2.13-0.94 2.97-1.67 0.87-0.75 1.55-1.65 2.03-2.72 0.51-1.09 0.76-2.34 0.76-3.77m1.82 24.65c0-1.52-0.29-2.91-0.87-4.17-0.56-1.25-1.34-2.34-2.36-3.26-0.99-0.92-2.17-1.63-3.55-2.14-1.36-0.5-2.84-0.76-4.46-0.76-1.64 0-3.16 0.26-4.53 0.76-1.36 0.51-2.54 1.22-3.56 2.14-0.99 0.92-1.76 2.01-2.32 3.26-0.55 1.26-0.83 2.65-0.83 4.17 0 1.6 0.28 3.03 0.83 4.28 0.56 1.26 1.33 2.32 2.32 3.19 1.02 0.87 2.2 1.54 3.56 2 1.37 0.46 2.89 0.68 4.53 0.68 1.62 0 3.1-0.22 4.46-0.68 1.38-0.46 2.56-1.13 3.55-2 1.02-0.87 1.8-1.93 2.36-3.19 0.58-1.25 0.87-2.68 0.87-4.28"/>
  </g>
  <metadata>
    <rdf:RDF>
      <cc:Work>
        <dc:format>image/svg+xml</dc:format>
        <dc:type rdf:resource="http://purl.org/dc/dcmitype/StillImage"/>
        <cc:license rdf:resource="http://creativecommons.org/licenses/publicdomain/"/>
        <dc:publisher>
          <cc:Agent rdf:about="http://openclipart.org/">
            <dc:title>Openclipart</dc:title>
          </cc:Agent>
        </dc:publisher>
        <dc:title>8ball</dc:title>
        <dc:date>2008-07-14T21:46:50</dc:date>
        <dc:description>I looked for this and only found one 8ball on the site, and that had flames with it. I have seen items with this look marked photorealistic but I think it needs to be better than this to be truly tagged that way.</dc:description>
        <dc:source>http://openclipart.org/detail/17832/8ball-by-narrowhouse</dc:source>
        <dc:creator>
          <cc:Agent>
            <dc:title>narrowhouse</dc:title>
          </cc:Agent>
        </dc:creator>
        <dc:subject>
          <rdf:Bag>
            <rdf:li>ball</rdf:li>
            <rdf:li>billiards</rdf:li>
            <rdf:li>clip art</rdf:li>
            <rdf:li>clipart</rdf:li>
            <rdf:li>image</rdf:li>
            <rdf:li>media</rdf:li>
            <rdf:li>png</rdf:li>
            <rdf:li>pool</rdf:li>
            <rdf:li>public domain</rdf:li>
            <rdf:li>sport</rdf:li>
            <rdf:li>svg</rdf:li>
          </rdf:Bag>
        </dc:subject>
      </cc:Work>
      <cc:License rdf:about="http://creativecommons.org/licenses/publicdomain/">
        <cc:permits rdf:resource="http://creativecommons.org/ns#Reproduction"/>
        <cc:permits rdf:resource="http://creativecommons.org/ns#Distribution"/>
        <cc:permits rdf:resource="http://creativecommons.org/ns#DerivativeWorks"/>
      </cc:License>
    </rdf:RDF>
  </metadata>
</svg>
